PathFileType	4	(X/Y/Z)	E:\Qualisys_Data\Carbon_Farble_Plate\Data\Amateur_Runner\S2\T1\S2T1V12_c3d.trc
DataRate	CameraRate	NumFrames	NumMarkers	Units	OrigDataRate	OrigDataStartFrame	OrigNumFrames
200.000000	200.000000	5	39	mm	200.000000	120	320
Frame#	Time	LSHO			RSHO			LICST			RICST			LASIS			LHEEL			RASIS			LTROC			RTROC			SACR			LTH1			LSK4			LTH2			LTH3			RHM5			LSK2			LTH4			RTH1			LTOE			RTH2			RTH3			RTH4			LLEP			RLEP			LSK1			LSK3			RSK1			LHM5			RSK2			LFT1			RSK3			RSK4			LLME			RLME			RTOE			RHEEL			RFT1			RFT2			LFT2			
		X1	Y1	Z1	X2	Y2	Z2	X3	Y3	Z3	X4	Y4	Z4	X5	Y5	Z5	X6	Y6	Z6	X7	Y7	Z7	X8	Y8	Z8	X9	Y9	Z9	X10	Y10	Z10	X11	Y11	Z11	X12	Y12	Z12	X13	Y13	Z13	X14	Y14	Z14	X15	Y15	Z15	X16	Y16	Z16	X17	Y17	Z17	X18	Y18	Z18	X19	Y19	Z19	X20	Y20	Z20	X21	Y21	Z21	X22	Y22	Z22	X23	Y23	Z23	X24	Y24	Z24	X25	Y25	Z25	X26	Y26	Z26	X27	Y27	Z27	X28	Y28	Z28	X29	Y29	Z29	X30	Y30	Z30	X31	Y31	Z31	X32	Y32	Z32	X33	Y33	Z33	X34	Y34	Z34	X35	Y35	Z35	X36	Y36	Z36	X37	Y37	Z37	X38	Y38	Z38	X39	Y39	Z39	

121	0.6	-377.0368041992188	1423.487426757812	-464.4801940917969	-369.5332336425781	1426.530029296875	-141.8027954101562	-440.5680236816406	976.0751953125	-432.6416625976562	-412.1009216308594	965.9480590820312	-128.7878875732422	-382.8465576171875	928.9378051757812	-421.4519958496094	-749.6204833984375	138.6182403564453	-287.9981384277344	-352.82763671875	922.022216796875	-160.5515594482422	-517.709716796875	857.6885986328125	-418.8766174316406	-488.1341857910156	857.1184692382812	-121.0216827392578	-516.4246826171875	1013.59521484375	-275.4132080078125	-414.0534057617188	612.1114501953125	-429.6251220703125	-627.90625	291.8305969238281	-383.9802551269531	-495.1324768066406	617.4567260742188	-426.2613830566406	-419.2577514648438	511.62255859375	-402.4429626464844	-557.2326049804688	173.7190551757812	-117.6508026123047	-574.6585083007812	373.8543090820312	-404.5502014160156	-502.9320983886719	520.5258178710938	-398.3563232421875	-257.4737243652344	650.2088012695312	-114.9964599609375	-526.510009765625	63.98382186889648	-317.2300109863281	-330.6300354003906	621.4860229492188	-108.93115234375	-222.0964050292969	555.8604125976562	-132.461669921875	-300.6526794433594	529.2810668945312	-126.5862503051758	-469.9117126464844	467.7740478515625	-398.4668579101562	-266.5722351074219	509.8943786621094	-124.7457046508789	-507.9529418945312	333.5019226074219	-393.0189514160156	-560.492431640625	249.6629943847656	-375.1284790039062	-326.7178344726562	416.4450073242188	-125.4712829589844	-582.8204956054688	61.39379119873047	-379.8577880859375	-366.672119140625	486.2815551757812	-123.4380645751953	-745.4752807617188	108.3891906738281	-261.55517578125	-415.2586669921875	365.5520935058594	-134.2342529296875	-452.4254760742188	436.3291931152344	-133.2056884765625	-690.5254516601562	131.9608001708984	-346.7740478515625	-592.1861572265625	304.4495849609375	-156.6857147216797	-506.1285705566406	136.4961547851562	-175.1378936767578	-637.8073120117188	338.6356201171875	-216.9593963623047	-650.1304321289062	309.0292358398438	-248.4094390869141	-661.6595458984375	325.3221435546875	-192.4723663330078	-758.658447265625	111.4464416503906	-313.8541564941406
122	0.605	-358.980712890625	1428.343627929688	-463.0467834472656	-355.94384765625	1431.083251953125	-140.9017486572266	-422.7762756347656	979.9140625	-432.4830322265625	-395.5229797363281	970.807861328125	-128.6572570800781	-365.8983459472656	932.263916015625	-421.1587219238281	-745.1331787109375	144.6436462402344	-289.088134765625	-336.4881896972656	926.8772583007812	-160.5339660644531	-501.7527160644531	862.1431274414062	-418.6101379394531	-470.9164123535156	862.528564453125	-119.6398620605469	-499.7844848632812	1017.846862792969	-276.0058288574219	-403.2681579589844	615.5817260742188	-428.8479919433594	-623.375	298.1073913574219	-384.5926513671875	-484.9895629882812	623.2125244140625	-425.7959289550781	-411.7952880859375	515.501220703125	-402.0046081542969	-524.6336669921875	168.7236480712891	-116.8030471801758	-570.2659301757812	379.8812561035156	-404.8977355957031	-495.075927734375	526.5308837890625	-398.346923828125	-239.9386138916016	656.1286010742188	-115.4497604370117	-525.5624389648438	63.87665557861328	-317.3724975585938	-313.1698608398438	626.6314697265625	-109.7578353881836	-203.7414703369141	562.4231567382812	-133.2763519287109	-281.4718627929688	534.5103759765625	-128.2858581542969	-464.1668090820312	472.9757995605469	-399.1282043457031	-248.1551361083984	515.8900756835938	-125.262565612793	-503.6695556640625	338.7476501464844	-394.1183166503906	-557.7269897460938	256.0965576171875	-376.7080688476562	-305.4160461425781	419.2913513183594	-125.9755554199219	-581.537353515625	62.03328704833984	-379.8190307617188	-347.972900390625	487.7671508789062	-123.3280792236328	-742.051025390625	114.8180313110352	-262.3375549316406	-391.589599609375	365.2517395019531	-134.4077758789062	-431.5124206542969	434.2804260253906	-133.1059417724609	-686.7063598632812	137.5699005126953	-347.6934814453125	-565.7159423828125	296.6839904785156	-156.84814453125	-471.2031860351562	133.7877349853516	-174.1482849121094	-613.019775390625	328.7979736328125	-217.1387481689453	-624.02099609375	298.68994140625	-248.6643981933594	-635.252685546875	314.0108642578125	-192.57666015625	-754.7120971679688	117.9546279907227	-314.8972778320312
123	0.61	-340.58740234375	1433.387451171875	-461.7686157226562	-342.2511291503906	1435.223510742188	-140.2552490234375	-405.0029907226562	983.5125122070312	-432.4438171386719	-378.767578125	975.9524536132812	-128.8216400146484	-349.1878051757812	935.4816284179688	-421.0429382324219	-740.6373291015625	150.9757843017578	-290.2698059082031	-319.7826843261719	931.9298095703124	-160.8074188232422	-485.9321594238281	867.1211547851562	-417.7808227539062	-453.6208801269531	867.9905395507812	-118.2594299316406	-483.0194396972656	1021.726745605469	-277.1226196289062	-392.3637390136719	619.2014770507812	-427.3311767578125	-619.0205078125	304.7398071289062	-384.7591247558594	-473.8868408203125	628.931396484375	-425.1622314453125	-403.5515441894531	519.544921875	-401.6701049804688	-491.8793029785156	163.6294708251953	-116.2324905395508	-565.1578369140625	386.9156799316406	-405.1085205078125	-486.8359375	532.7667236328125	-398.5684204101562	-222.3516235351562	662.3438720703125	-115.8545608520508	-524.965087890625	64.0499038696289	-317.5244445800781	-295.0724792480469	632.3328247070312	-109.6695785522461	-185.341552734375	568.940185546875	-133.8370819091797	-263.1809997558594	540.4193725585938	-128.8841400146484	-457.3420104980469	478.5784301757812	-399.398681640625	-229.5157775878906	521.4942626953125	-125.443717956543	-499.2225952148438	344.8169555664062	-395.7121887207031	-553.3192749023438	262.4656372070312	-378.5784606933594	-284.1855163574219	422.3907165527344	-125.7138214111328	-580.8908081054688	62.66237640380859	-379.9708557128906	-329.7254028320312	488.7514343261719	-123.617919921875	-738.3140258789062	121.6304168701172	-262.9682312011719	-368.2159423828125	364.4695434570312	-134.1730346679688	-410.75146484375	431.472412109375	-133.3147125244141	-682.3034057617188	143.1508331298828	-348.9423522949219	-539.258544921875	289.2200317382812	-157.0636138916016	-437.0076904296875	131.279296875	-173.5762634277344	-589.62646484375	318.1935424804688	-217.8110961914062	-596.5953979492188	286.6575012207031	-247.9200439453125	-609.5679931640625	303.0082702636719	-192.6289978027344	-751.047119140625	123.9775695800781	-315.4830932617188
124	0.615	-322.7838134765625	1438.552856445312	-460.2353515625	-328.4668884277344	1439.720947265625	-139.5641326904297	-387.1212768554688	987.3836669921876	-431.9954223632812	-361.8750915527344	981.018310546875	-128.2727661132812	-332.0558776855469	938.9408569335938	-420.6849060058594	-737.94775390625	157.0730133056641	-290.2550048828125	-303.1777648925781	936.7765502929688	-160.5491485595703	-469.513916015625	871.6699829101562	-417.6315612792969	-436.2066650390625	873.4385375976562	-116.6276550292969	-465.6067199707031	1025.994140625	-277.6144104003906	-380.8769836425781	622.927490234375	-426.6095581054688	-613.9358520507812	312.1122741699219	-385.7241516113281	-462.2494506835938	635.1928100585938	-425.2910461425781	-394.634033203125	523.674072265625	-401.4573669433594	-458.9324035644531	158.7996520996094	-116.2297134399414	-559.716796875	393.6932067871094	-406.0316467285156	-477.9192504882812	538.8938598632812	-398.5879821777344	-204.93603515625	668.1366577148438	-116.1092147827148	-523.7993774414062	63.96674728393555	-317.6879577636719	-277.2974243164062	637.582763671875	-109.5988540649414	-167.5307922363281	574.7984008789062	-134.4059295654297	-244.5527191162109	545.84326171875	-128.9681549072266	-450.0114440917969	484.2008972167969	-400.2497863769531	-211.8260650634766	526.474853515625	-126.4512329101562	-493.8115539550781	351.1023559570312	-397.0953674316406	-548.748291015625	268.6457214355469	-380.4749145507812	-263.0157470703125	424.7401733398438	-126.0605926513672	-578.7265625	63.83115005493164	-380.3703002929688	-311.4883117675781	489.2091979980469	-123.6542282104492	-733.853271484375	128.3088531494141	-263.9237670898438	-344.4307556152344	363.3557434082031	-134.7102355957031	-390.0022583007812	428.93896484375	-133.4257659912109	-677.2116088867188	148.8926239013672	-350.1011657714844	-512.3602905273438	281.3143005371094	-157.2297668457031	-402.3556823730469	128.7071533203125	-172.9531555175781	-564.1934814453125	307.5859375	-217.977783203125	-570.2188110351562	276.3854064941406	-248.0149688720703	-583.245849609375	291.9696960449219	-193.0858764648438	-746.5952758789062	130.8170013427734	-316.2598266601562
125	0.62	-304.8743286132812	1443.730590820312	-458.5781860351562	-314.4158020019531	1444.181274414062	-138.8114318847656	-369.2299499511719	991.3048706054688	-431.5467834472656	-345.1555786132812	986.3862915039062	-128.5753784179688	-314.7683410644531	942.2194213867188	-419.8485107421875	-729.7474365234375	165.0893707275391	-292.6301879882812	-286.4418029785156	941.741455078125	-160.1837921142578	-453.32080078125	876.6201171875	-417.33349609375	-418.6017761230469	879.0856323242188	-114.7987670898438	-449.0528564453125	1030.473510742188	-278.2554626464844	-368.8092651367188	627.5065307617188	-426.3572387695312	-608.2299194335938	319.1724243164062	-386.9461059570312	-450.260986328125	641.084716796875	-425.6128540039062	-385.1234436035156	528.1216430664062	-401.4629211425781	-425.9511413574219	154.2507019042969	-115.5044326782227	-553.6602172851562	400.7275085449219	-407.0904235839844	-468.230712890625	545.3020629882812	-399.4450073242188	-187.2035217285156	673.5558471679688	-116.3991241455078	-522.8945922851562	63.93109512329102	-318.4326171875	-259.60546875	643.1554565429688	-109.2266464233398	-149.8197784423828	580.4345092773438	-135.2893371582031	-226.5950164794922	551.8702392578125	-128.2626037597656	-441.9316711425781	489.7232971191406	-401.0329284667969	-194.2546081542969	531.5922241210938	-127.0575714111328	-487.80126953125	358.1369934082031	-399.0742797851562	-543.30859375	275.6780090332031	-382.802001953125	-241.822265625	427.2160034179688	-125.3815231323242	-577.0632934570312	64.907958984375	-381.0564575195312	-293.4425659179688	489.2660217285156	-123.4158248901367	-728.5524291992188	136.3012390136719	-264.9263305664062	-320.8486633300781	362.380615234375	-134.4739379882812	-369.173095703125	425.6412658691406	-133.1046447753906	-671.910400390625	154.7908477783203	-351.7177429199219	-485.2874145507812	273.3809509277344	-157.84326171875	-367.5850830078125	126.8140411376953	-172.2485504150391	-538.3103637695312	297.3282775878906	-218.3602752685547	-542.9140014648438	264.8458251953125	-248.5816497802734	-556.7473754882812	279.6370544433594	-193.8188781738281	-741.7368774414062	138.2761077880859	-317.398193359375
